<svg xmlns="http://www.w3.org/2000/svg" xmlns:xlink="http://www.w3.org/1999/xlink" width="79" height="79" viewBox="0 0 79 79">
  <defs>
    <rect id="rect-1" width="79" height="79" x="0" y="0"/>
    <mask id="mask-2" maskContentUnits="userSpaceOnUse" maskUnits="userSpaceOnUse">
      <rect width="79" height="79" x="0" y="0" fill="black"/>
      <use fill="white" xlink:href="#rect-1"/>
    </mask>
  </defs>
  <g>
    <use fill="none" xlink:href="#rect-1"/>
    <g mask="url(#mask-2)">
      <path fill="rgb(11,50,227)" fill-rule="evenodd" d="M74.4309082 45.0546875h-8.3918457v-2.77734375c0-2.55236816-2.07653809-4.62890625-4.62890625-4.62890625h-8.0234375c-2.55236816 0-4.62890625 2.07653809-4.62890625 4.62890625v2.77734375h-3.703125V28.08203125c0-4.25396729-3.4609375-7.71484375-7.71484375-7.71484375H33.328125V4.62890625C33.328125 2.07653809 31.25158691 0 28.69921875 0h-12.34375c-2.55236816 0-4.62890625 2.07653809-4.62890625 4.62890625V20.3671875H7.71484375C3.4609375 20.3671875 0 23.82806396 0 28.08203125v11.57226563c0 .85217285.6907959 1.54296875 1.54296875 1.54296875s1.54296875-.6907959 1.54296875-1.54296875V28.08203124c0-2.55236816 2.07653809-4.62890625 4.62890625-4.62890625h29.625c2.55236816 0 4.62890625 2.07653809 4.62890625 4.62890625V45.0546875h-1.6027832c-2.51940918 0-4.5690918 2.04968262-4.5690918 4.56903076V69.7421875H7.71484375c-2.55236816 0-4.62890625-2.07653809-4.62890625-4.62890625V53.54101562c0-.85217285-.6907959-1.54296875-1.54296875-1.54296875S0 52.68884277 0 53.54101563v11.57226563c0 3.72583008 2.65466309 6.84277344 6.171875 7.55963135v1.69818115C6.171875 76.92346191 8.24841309 79 10.80078125 79s4.62890625-2.07653809 4.62890625-4.62890625V72.828125H29.625v1.54296875C29.625 76.92346191 31.70153809 79 34.25390625 79c1.17578125 0 2.24975586-.44146729 3.06713867-1.16619873C38.12988282 78.55822754 39.19714355 79 40.3659668 79h34.0649414C76.95031738 79 79 76.95031738 79 74.43096924V49.62371826c0-2.51934814-2.04968262-4.56903076-4.5690918-4.56903076zm-58.07543945-41.96875h12.34375c.85083008 0 1.54296875.69216919 1.54296875 1.54296875V6.171875H14.8125V4.62890625c0-.85079956.69213867-1.54296875 1.54296875-1.54296875zM14.8125 9.2578125v11.109375h15.4296875V9.2578125H14.8125zm37.03125 33.01953125c0-.85076904.69213867-1.54296875 1.54296875-1.54296875h8.0234375c.85083008 0 1.54296875.6921997 1.54296875 1.54296875v2.77734375H51.84375v-2.77734375zM43.1159668 48.140625h-2.75c-.8178711 0-1.4831543.66534424-1.4831543 1.48309326v2.75006104c2.0588379-.55053711 3.68261719-2.17449951 4.2331543-4.2331543zm22.9230957 0h-17.28125v27.7734375h17.28125V48.140625zm9.875 1.48309326v2.75006104c-2.05859375-.55053711-3.68261719-2.17437744-4.2331543-4.2331543h2.75c.81774903 0 1.4831543.66534424 1.4831543 1.48309326zm-37.03125 5.90740967c3.05737305-.52661133 5.59606934-2.59002686 6.7890625-5.36334229v23.71911622c-1.19299316-2.77331543-3.73168945-4.83685303-6.7890625-5.36334229V55.53112793zM69.125 73.88690186c1.19299316-2.77331543 3.73168945-4.83673096 6.7890625-5.36334229V55.53112793c-3.05737305-.52642822-5.59606934-2.59002686-6.7890625-5.36334229v23.71911622zm-30.2421875.54406738V71.6809082c2.05859375.55053711 3.68261719 2.17437744 4.2331543 4.2331543h-2.75c-.8178711 0-1.4831543-.66534424-1.4831543-1.48309326zm32.7980957 1.48309326h2.75c.81774903 0 1.4831543-.66534424 1.4831543-1.48309326V71.6809082c-2.0588379.55053711-3.68261719 2.17449951-4.2331543 4.2331543zM12.34375 74.37109375c0 .85076904-.69213867 1.54296875-1.54296875 1.54296875s-1.54296875-.6921997-1.54296875-1.54296875V72.828125H12.34375v1.54296875zm20.3671875 0c0 .85076904.69213867 1.54296875 1.54296875 1.54296875s1.54296875-.6921997 1.54296875-1.54296875V72.828125h-3.0859375v1.54296875z"/>
      <path fill="rgb(11,50,227)" fill-rule="evenodd" d="M8.33203125 42.89453125c0-3.45996094 2.81481934-6.27478027 6.2746582-6.27478027 3.45996094 0 6.27478028 2.81481933 6.27478028 6.27478027 0 3.45996094-2.81481934 6.27478027-6.27478028 6.27478027-3.45983886 0-6.2746582-2.81481933-6.2746582-6.27478027zm3.0859375 0c0 1.75836182 1.430542 3.18884277 3.1887207 3.18884277 1.75830078 0 3.18884278-1.43048095 3.18884278-3.18884277s-1.430542-3.18884277-3.18884278-3.18884277c-1.7581787 0-3.1887207 1.43048095-3.1887207 3.18884277z"/>
      <path fill="rgb(11,50,227)" fill-rule="evenodd" d="M19.91345215 52.28240967c.54553222-.94488526 1.52270508-1.50915528 2.6138916-1.50915528 1.09118652 0 2.06835938.56427002 2.61413574 1.50915528l4.12573242 7.14581299c.54553223.94494629.54553223 2.07342529 0 3.01837158-.5456543.94506836-1.52294921 1.50933838-2.61413574 1.50933838H18.4017334c-1.09118653 0-2.06848145-.56427002-2.61401367-1.50933838-.5456543-.9449463-.5456543-2.0734253 0-3.01837158l4.12573242-7.145813zm2.6138916 1.64434814l-4.00878906 6.94335938h8.01757812l-4.00878906-6.94335938z"/>
      <path fill="rgb(11,50,227)" fill-rule="evenodd" d="M37.28845215 40.24139404c0 .85217285-.6907959 1.54296875-1.54296875 1.54296875h-8.43493652c-.85217286 0-1.54296876-.6907959-1.54296876-1.54296875v-8.43493652c0-.85217285.6907959-1.54296875 1.54296876-1.54296875h8.43493652c.85217285 0 1.54296875.6907959 1.54296875 1.54296875v8.43493652zm-3.0859375-6.8918457h-5.34899902v5.34899902h5.34899902v-5.34899902z"/>
      <path fill="rgb(11,50,227)" fill-rule="evenodd" d="M1.54296875 48.140625c.40580078 0 .80388672-.16509766 1.0908789-.45208984.2869922-.2869922.45208985-.68507813.45208985-1.09087891 0-.40580078-.16509766-.80388672-.45208984-1.0908789-.2869922-.2869922-.68507813-.45208985-1.09087891-.45208985-.40580078 0-.80388672.16509766-1.0908789.45208984C.16509764 45.79376954 0 46.19185547 0 46.59765625c0 .40580078.16509766.80388672.45208984 1.0908789.2869922.2869922.68507813.45208985 1.09087891.45208985z"/>
    </g>
  </g>
</svg>
