<svg xmlns="http://www.w3.org/2000/svg" width="16" height="16" viewBox="0 0 16 16">
  <path fill="rgb(11,50,227)" fill-rule="evenodd" d="M15.99987793 1.86534119c-.00512695.5003662-.20690918.96672058-.56799316 1.3131256l-3.31384278 3.17919923.40771485 1.35194397 1.01403808-1.01397706.6628418.6629181-1.3696289 1.3696289.30725097 1.01872254 1.0625-1.06243897.6628418.66290283-1.41809082 1.41807556.92285156 3.05957032-2.17224121 2.17227173L8.397583 9.9269104l-1.55187988 1.48875427.57641601 2.64228821L5.48010254 16 3.4942627 12.50579834 0 10.51994324 1.9420166 8.5778656l2.64233399.57647705L6.07312012 7.6025238.00280762 3.8019104l2.1722412-2.17227173 3.05944825.92282105L6.65258789 1.1343689l.66296387.6628418-1.06237793 1.06243896 1.01867676.3072815 1.3696289-1.36962891.66296387.66290283-1.01403809 1.01397705 1.35192871.40779114L12.8215332.56808472c.34643555-.36109925.81274414-.56282044 1.31311035-.56800843.49987793-.00453186.97070313.18681336 1.32458497.54063416.35388183.35383606.54589843.82424927.54064941 1.32463074zm-9.6027832 11.89198303l-.70983887.70976257-1.5053711-2.64886474-2.64892578-1.50541687.70983887-.70980835 2.65466309.5791626 8.60058593-8.96504212c.17053223-.17774963.40002442-.27703857.64636231-.27957153l.00976562-.00006104c.24255372 0 .47033692.09431458.64221192.26615906.17419433.17414856.26867676.40568542.26611328.65197754-.00256348.24627685-.10180664.47584533-.27954102.64634704l-8.96508789 8.6006012.57922364 2.65475464zM2.44128418 2.68917847l-.94299316.9429779 5.2376709 3.2793274 2.17773437-2.27001954-6.47241211-1.95228576zm9.92663574 11.81256103l.94299317-.94299316-1.95227051-6.47247315-2.27001953 2.17770386 3.27929687 5.23776245z"/>
</svg>
