<svg xmlns="http://www.w3.org/2000/svg" xmlns:xlink="http://www.w3.org/1999/xlink" width="460" height="460" viewBox="0 0 460 460">
  <defs>
    <rect id="rect-1" width="460" height="460" x="0" y="0"/>
    <mask id="mask-2" maskContentUnits="userSpaceOnUse" maskUnits="userSpaceOnUse">
      <rect width="460" height="460" x="0" y="0" fill="black"/>
      <use fill="white" xlink:href="#rect-1"/>
    </mask>
  </defs>
  <g>
    <use fill="none" xlink:href="#rect-1"/>
    <g mask="url(#mask-2)">
      <g>
        <rect width="460" height=".23" x="0" y="351.808" fill="rgb(235,235,235)" rx="0" ry="0"/>
        <rect width="15.235" height=".23" x="361.661" y="366.73" fill="rgb(235,235,235)" rx="0" ry="0"/>
        <rect width="34.785" height=".23" x="302.855" y="363.391" fill="rgb(235,235,235)" rx="0" ry="0"/>
        <rect width="63.554" height=".23" x="243.8" y="358.073" fill="rgb(235,235,235)" rx="0" ry="0"/>
        <rect width="11.675" height=".23" x="48.263" y="359.619" fill="rgb(235,235,235)" rx="0" ry="0"/>
        <rect width="33.884" height=".23" x="68.135" y="359.619" fill="rgb(235,235,235)" rx="0" ry="0"/>
        <rect width="54.768" height=".23" x="140.144" y="363.501" fill="rgb(235,235,235)" rx="0" ry="0"/>
        <path fill="rgb(235,235,235)" fill-rule="evenodd" d="M40.3972168 310.77600098h177.64282226c2.90124512 0 5.25317383-2.35192871 5.25317383-5.25317383V55.85321045c0-1.39324951-.5534668-2.72940064-1.53863525-3.7145691-.98516846-.98516845-2.3213501-1.53863525-3.71453858-1.53863525H40.3972168c-2.87982178.00494385-5.21881104 2.32751465-5.24401856 5.20721436v249.71560669c0 2.89764404 2.34631348 5.2481079 5.24401856 5.25317383zM35.3831787 55.80718994c0-2.77062988 2.24334717-5.01812744 5.01397705-5.02319336h177.64282227c2.77215576.00506592 5.01812744 2.25106812 5.02319336 5.02319336v249.7156372c-.00506592 2.77209473-2.2510376 5.01806641-5.02319336 5.02319337H40.39715576c-2.77062988-.00512696-5.01397705-2.25256348-5.01397705-5.02319336V55.80718995z"/>
        <path fill="rgb(235,235,235)" fill-rule="evenodd" d="M239.39318848 310.77600098h177.65197754c2.89416503-.01013184 5.23486328-2.35913086 5.23486328-5.25317383V55.80722045c-.02514649-2.87612914-2.35864258-5.1972351-5.23486328-5.20721435H239.39318848c-2.88128662.00488282-5.22296143 2.3260193-5.25317383 5.20721436v249.71560669c.00506592 2.89916992 2.35406494 5.2481079 5.25317383 5.25317383zm-5.02319336-254.96881104c.00506592-2.77212524 2.2510376-5.01812744 5.02319336-5.02319336h177.65197754c2.7722168.00506592 5.01818847 2.25106812 5.02319335 5.02319336v249.7156372c-.00500488 2.77209473-2.25097656 5.01806641-5.02319335 5.02319337H239.39318848c-2.77215577-.00512696-5.01812744-2.25109864-5.02319336-5.02319336V55.80718995z"/>
        <rect width="19.835" height="351.808" x="215.188" y="0" fill="rgb(245,245,245)" rx="0" ry="0"/>
        <rect width="2.788" height="351.808" x="235.023" y="0" fill="rgb(224,224,224)" rx="0" ry="0" transform="rotate(-179.999936 236.417 175.904)"/>
        <path fill="rgb(230,230,230)" fill-rule="evenodd" d="M128.0364 316.3696H23.46c-9.6e-7-3.09062416 1.22837404-6.05453014 3.41463794-8.2390685 2.1862639-2.18453836 5.15113886-3.41057275 8.24176206-3.4081315h92.92v11.6472z"/>
        <path fill="rgb(224,224,224)" fill-rule="evenodd" d="M135.7 316.3696H90.0036c-9.6e-7-3.09062416 1.22837404-6.05453014 3.41463794-8.2390685 2.1862639-2.18453836 5.15113886-3.41057275 8.24176206-3.4081315h34.04v11.6472z"/>
        <path fill="rgb(230,230,230)" fill-rule="evenodd" d="M201.1028 316.3696H96.5264c-9.6e-7-3.09062416 1.22837404-6.05453014 3.41463794-8.2390685 2.1862639-2.18453836 5.15113886-3.41057275 8.24176206-3.4081315h92.92v11.6472z"/>
        <path fill="rgb(224,224,224)" fill-rule="evenodd" d="M208.7664 316.3696H163.07c-9.6e-7-3.09062416 1.22837404-6.05453014 3.41463794-8.2390685 2.1862639-2.18453836 5.15113886-3.41057275 8.24176206-3.4081315h34.04v11.6472z"/>
        <path fill="rgb(230,230,230)" fill-rule="evenodd" d="M349.6 316.3696H244.9868c-.00002415-3.09701605 1.2334005-6.06651947 3.42763326-8.25212032 2.19423276-2.18560084 5.16857484-3.40731118 8.26556674-3.39507968h92.92v11.6472z"/>
        <path fill="rgb(224,224,224)" fill-rule="evenodd" d="M357.2268 316.3696h-45.6964c-9.6e-7-3.09062417 1.22837404-6.05453014 3.41463795-8.2390685 2.1862639-2.18453836 5.15113886-3.41057275 8.24176206-3.4081315H357.2268v11.6472z"/>
        <path fill="rgb(235,235,235)" fill-rule="evenodd" d="M394.1464 279.9836h-46.3128l6.5228 71.8244h33.2672l6.5228-71.8244z"/>
        <path fill="rgb(235,235,235)" fill-rule="evenodd" d="M370.53 291.962c-.8464-29.716 6.0996-91.2364 18.5288-116.2604l.8188.4048c-11.96 24.0304-19.32 85.8636-18.4 115.828l-.9476.0276z"/>
        <path fill="rgb(235,235,235)" fill-rule="evenodd" d="M375.13 233.4592s-3.0452-28.7684-14.2876-37.5912c-6.026 18.1608 6.3204 24.4168 14.2876 37.5912z"/>
        <path fill="rgb(235,235,235)" fill-rule="evenodd" d="M374.734375 233.69836426c.08520508.13665771.23461914.2199707.39562988.2208252l.13793946-.01837159c.20373535-.06500244.33154296-.2664795.30358886-.47845459-.11950683-1.18676758-3.18310547-29.06274414-14.453125-37.91314697-.11743164-.09136963-.27233886-.11889649-.4140625-.0736084-.14294433.04302979-.25610351.152771-.30358886.29437256-4.5263672 13.63439941 1.09484863 20.64483642 7.59924316 28.75 2.45202637 2.91589355 4.70214844 5.9958496 6.734375 9.21838379zm-6.00769043-9.7979126c-6.23754883-7.77404785-11.63793945-14.50842285-7.65429687-27.25042725 8.85949707 7.59002686 12.44750976 28.22558594 13.33081054 34.81280518-1.8125-2.75079346-3.77209472-5.18878174-5.67651367-7.56237793z"/>
        <path fill="rgb(235,235,235)" fill-rule="evenodd" d="M376.7952 222.5572s11.96-26.5972 25.4288-31.28c-.184 19.1084-13.6252 21.3992-25.4288 31.28z"/>
        <path fill="rgb(235,235,235)" fill-rule="evenodd" d="M376.40930176 222.81018066c.08422851.13104248.2302246.20935059.38598633.20703125.11450195.00531006.22753906-.02697753.32189941-.09204101 2.87023926-2.32550049 5.87805176-4.47607422 9.00683594-6.44000244 8.81359863-5.7407837 16.43115234-10.70880127 16.5600586-25.2355957-.00219727-.14892579-.0736084-.28839112-.19323731-.37719727-.12353516-.08666992-.28161621-.1072998-.42321778-.05517578-13.52404785 4.71960449-25.19885254 30.46118164-25.68640136 31.55596924-.06677246.14074707-.05615235.30603027.02807617.43701171zm1.6739502-1.87219238c2.91638183-5.94317627 12.7972412-24.65600586 23.67163085-29.01678467-.35888672 13.51477051-7.68200683 18.28039551-16.1459961 23.80041504-2.4748535 1.60998535-5.01403808 3.26599121-7.52563476 5.21636963z"/>
        <path fill="rgb(235,235,235)" fill-rule="evenodd" d="M371.2568 273.9484s-4.6-40.02-18.5656-50.6c-6.992 22.3836 8.5284 34.6472 18.5656 50.6z"/>
        <path fill="rgb(235,235,235)" fill-rule="evenodd" d="M370.77844238 274.25201416c.10327149.16381836.28479004.26159668.47839356.2576294.06237793-.00012208.12438965-.00946045.18395996-.02764893.24902344-.08795166.40515137-.33532715.37719726-.59796143-.19311523-1.64678955-4.80236816-40.37878418-18.78637695-50.96801757-.14733887-.11083985-.33862305-.14501954-.51513672-.09197999-.17565918.05493165-.31311035.19244385-.36804199.36798096-5.57324219 17.83239746 2.8092041 29.1651001 11.6928711 41.17553711l.00952148.01287842c2.32763672 3.17401123 4.78405762 6.45837402 6.9276123 9.87158203zm-6.02612304-10.54321289c-8.57470704-11.59246826-16.67944336-22.54956055-11.76672364-39.38519287 11.16870118 9.35638428 16.12756348 38.52960205 17.37878418 47.22357178-1.80322265-2.69555664-3.77197265-5.29919434-5.61206054-7.83837891z"/>
        <path fill="rgb(235,235,235)" fill-rule="evenodd" d="M372.8668 252.3744s15.5572-28.52 31.9792-34.5736c.2116 23.4324-17.7468 22.218-31.9792 34.5736z"/>
        <path fill="rgb(235,235,235)" fill-rule="evenodd" d="M372.50793457 252.80682373c.10009766.0848999.22766113.13061523.35888672.12878418.13513183-.00097656.26550293-.04986572.36791992-.13800049 4.397583-3.81799316 9.09887695-6.29278564 13.65283203-8.69403076 10.01879883-5.28076172 18.6760254-9.84399414 18.5288086-26.30279541-.00390625-.18353271-.09594727-.3540039-.24731446-.45794678-.15136718-.10394287-.34350586-.1286621-.51623535-.06640625-16.43127441 6.06280518-31.64807129 33.65356446-32.28283691 34.82196045-.13208008.23834229-.07385254.53710938.13793945.70843506zm2.33691406-2.79681396c4.25964356-7.0288086 16.60595703-26.08203125 29.4399414-31.38122559-.15637206 15.10638428-8.39953612 19.45800781-17.95837401 24.48120117-4.01123047 1.97888184-7.8515625 4.2868042-11.48156739 6.90002442z"/>
        <path fill="rgb(235,235,235)" fill-rule="evenodd" d="M380.19 204.3596s-2.116-20.0652-9.9636-26.22c-4.2044 12.6684 4.4068 17.0384 9.9636 26.22z"/>
        <path fill="rgb(235,235,235)" fill-rule="evenodd" d="M379.92321777 204.52514648c.05517578.09558106.15649414.15496827.2668457.15643311.05065919.00744629.10253907-.0022583.14709473-.0275879.13977051-.04681396.22790528-.1847534.21166993-.33123778-.11962891-.82800293-2.2631836-20.27679444-10.11999512-26.44995118-.08435059-.06292724-.19299317-.08331298-.2944336-.05523681-.09936523.03411865-.17749023.11218262-.21154785.21160888-3.15563965 9.51281739.7635498 14.39801026 5.30834961 20.05603028 1.70410156 2.04095459 3.27148438 4.19232178 4.6920166 6.4399414zm-4.1953125-6.83557128c-4.3515625-5.41882325-8.09594726-10.11077881-5.3359375-19.00720215 6.17321778 5.31762695 8.64794922 19.69720459 9.30114746 24.2880249-1.26953125-1.91363525-2.63110351-3.6248169-3.96520996-5.28082275z"/>
        <path fill="rgb(235,235,235)" fill-rule="evenodd" d="M383.8424 190.8448s8.28-18.5472 17.7376-21.8408c-.1196 13.3492-9.5036 14.996-17.7376 21.8408z"/>
        <path fill="rgb(235,235,235)" fill-rule="evenodd" d="M383.649292 191.102417c.0550537.04302978.123291.0657959.19311523.06439208.0838623-.00970459.16015625-.05285644.21166992-.1196289 2.0012207-1.62017823 4.09960937-3.11645508 6.28356933-4.48040772 6.15478516-4.01116943 11.47241211-7.47955322 11.56445313-17.59957886.00427246-.10705566-.04821777-.20843506-.13806152-.26678466-.09277344-.04602051-.20166016-.04602051-.2944336 0-9.42993164 3.30276489-17.57189941 21.25198364-17.92150879 22.01559448-.05651855.13696289-.01513672.29473877.1011963.38641357zm1.08544921-1.3892212c2.03320313-4.14001465 8.93322754-17.19476318 16.51403809-20.23999023-.23925782 9.42999267-5.3544922 12.76037597-11.26086426 16.55999755-1.72033692 1.168396-3.49597168 2.31842042-5.25317383 3.67999268z"/>
        <path fill="rgb(245,245,245)" fill-rule="evenodd" d="M143.52 179.1056c-8.7492-.6164-12.5304.4048-16.3116-7.4612-3.7812-7.866-16.974-12.0888-21.2612-5.2256-4.2872 6.8632-5.8328 11.6288-15.7504 7.5624s-13.1836-1.1132-14.6188 4.3056-24.1224 2.806-17.48 10.5524h84.0328s10.1752-9.1172 1.3892-9.7336z"/>
        <path fill="rgb(245,245,245)" fill-rule="evenodd" d="M403.696 137.08c-4.9496-.3496-7.084.23-9.2-4.2228-2.116-4.4528-9.6048-6.8448-12.0336-2.9624-2.4288 3.8824-3.2936 6.5872-8.9056 4.278-5.612-2.3092-7.4612-.6256-8.28 2.438-.8188 3.0636-13.6528 1.5916-9.89 5.9708H402.96s5.6856-5.1888.736-5.5016z"/>
        <path fill="rgb(245,245,245)" fill-rule="evenodd" d="M344.4664 29.1824c-2.4564-3.9928-9.476-5.3176-15.7504-2.2172-6.2744 3.1004-2.0056-16.33-13.7448-13.0732-16.7624 4.6552-12.098 18.5564-19.0808 17.2868-6.9828-1.2696-27.462 2.1344-16.6336 9.0804h61.962s5.6948-7.0932 3.2476-11.0768z"/>
      </g>
      <ellipse cx="230" cy="382.941" fill="rgb(245,245,245)" rx="178.379" ry="10.414"/>
      <g>
        <path fill="rgb(11,50,227)" fill-rule="evenodd" d="M300.8768 101.6876l-7.4796-4.4712 4.3516-.8556 11.592 2.3-8.464 3.0268z"/>
        <g opacity=".3">
          <path fill="rgb(38,50,56)" fill-rule="evenodd" d="M300.8768 101.6876l-7.4796-4.4712 4.3516-.8556 11.592 2.3-8.464 3.0268z"/>
        </g>
        <path fill="rgb(11,50,227)" fill-rule="evenodd" d="M352.6176 87.9796l-9.0988-11.4264 3.3672-.6532c2.73099686-.53300647 5.5577309-.26790034 8.142.7636L372.6 83.72l-19.9824 4.2596z"/>
        <g opacity=".3">
          <path fill="rgb(38,50,56)" fill-rule="evenodd" d="M352.6176 87.9796l-9.0988-11.4264 3.3672-.6532c2.73099686-.53300647 5.5577309-.26790034 8.142.7636L372.6 83.72l-19.9824 4.2596z"/>
        </g>
        <path fill="rgb(11,50,227)" fill-rule="evenodd" d="M400.3288 79.7916l-2.7048-.6716c-2.61933006-.68927397-5.36369564-.75544122-8.0132-.1932l-89.102 20.24-.8372 3.8364 3.4776 2.484 90.16-17.6548c2.9539539-.57839082 5.706229-1.91647848 7.9856-3.8824.71311085-.56825606 1.03590499-1.49592881.82957896-2.38411325-.20632603-.88818444-.90499656-1.57857005-1.79557896-1.77428675z"/>
        <rect width="39.882" height=".488" x="306.447" y="111.886" fill="rgb(11,50,227)" rx="0" ry="0" transform="rotate(-12.000004 326.3879154 112.12968027)"/>
        <rect width="25.99" height=".488" x="315.141" y="85.375" fill="rgb(11,50,227)" rx="0" ry="0" transform="rotate(-12.000004 328.13648924 85.6192518)"/>
        <rect width="10.681" height=".488" x="289.032" y="118.697" fill="rgb(11,50,227)" rx="0" ry="0" transform="rotate(-12.000004 294.37291738 118.94080879)"/>
        <g opacity=".3">
          <path fill="rgb(38,50,56)" fill-rule="evenodd" d="M391.0552 86.25l-88.0532 18.7588c-.40608002.07926284-.79523698.22869912-1.15.4416.4319004.057923.8704873.04237027 1.2972-.046l90.16-17.6456c1.47213564-.29092076 2.90068222-.77019505 4.2504-1.426l.3312-.1564c-2.26047244-.43345793-4.58498476-.40842953-6.8356.0736z"/>
        </g>
        <path fill="rgb(11,50,227)" fill-rule="evenodd" d="M299.6716 102.9296l-2.2632 9.5588 4.3516-.8556 7.9212-10.3408-10.0096 1.6376z"/>
        <path fill="rgb(11,50,227)" fill-rule="evenodd" d="M300.5088 99.0932l-5.2808-9.5588 4.0572-.8004 11.7116 8.3076-10.488 2.0516z"/>
        <path fill="rgb(11,50,227)" fill-rule="evenodd" d="M353.4088 92l-1.4628 27.6c4.17646779-.8170507 7.7790669-3.4365106 9.844-7.1576l13.754-24.7572L353.4088 92z"/>
        <g opacity=".5">
          <rect width="1.132" height="2.07" x="329.611" y="95.449" fill="rgb(255,255,255)" rx="0" ry="0" transform="rotate(-11.590004 330.17656389 96.48421116)"/>
          <rect width="1.132" height="2.07" x="331.851" y="95.022" fill="rgb(255,255,255)" rx="0" ry="0" transform="rotate(-11.580004 332.41640913 96.05679627)"/>
          <rect width="1.132" height="2.07" x="334.095" y="94.562" fill="rgb(255,255,255)" rx="0" ry="0" transform="rotate(-11.580004 334.66117853 95.59714728)"/>
          <rect width="1.132" height="2.07" x="336.34" y="94.102" fill="rgb(255,255,255)" rx="0" ry="0" transform="rotate(-11.580004 336.90594793 95.1374983)"/>
          <rect width="1.132" height="2.07" x="338.585" y="93.643" fill="rgb(255,255,255)" rx="0" ry="0" transform="rotate(-11.580004 339.15071733 94.6778493)"/>
          <rect width="1.132" height="2.07" x="340.83" y="93.183" fill="rgb(255,255,255)" rx="0" ry="0" transform="rotate(-11.580004 341.39548673 94.21820032)"/>
          <rect width="1.132" height="2.07" x="343.083" y="92.722" fill="rgb(255,255,255)" rx="0" ry="0" transform="rotate(-11.580004 343.64926887 93.75670456)"/>
          <rect width="1.132" height="2.07" x="345.332" y="92.227" fill="rgb(255,255,255)" rx="0" ry="0" transform="rotate(-11.590004 345.8978608 93.2622461)"/>
          <rect width="1.132" height="2.07" x="347.573" y="91.802" fill="rgb(255,255,255)" rx="0" ry="0" transform="rotate(-11.580004 348.13880767 92.8374066)"/>
          <rect width="1.132" height="2.07" x="349.816" y="91.334" fill="rgb(255,255,255)" rx="0" ry="0" transform="rotate(-11.580004 350.3817303 92.36874487)"/>
          <rect width="1.141" height="2.07" x="352.061" y="90.864" fill="rgb(255,255,255)" rx="0" ry="0" transform="rotate(-11.580004 352.63100607 91.8989725)"/>
          <rect width="1.132" height="2.07" x="354.305" y="90.414" fill="rgb(255,255,255)" rx="0" ry="0" transform="rotate(-11.580004 354.8712691 91.4494469)"/>
          <rect width="1.132" height="2.07" x="356.553" y="89.918" fill="rgb(255,255,255)" rx="0" ry="0" transform="rotate(-11.590004 357.1190728 90.95315033)"/>
          <rect width="1.141" height="2.07" x="358.804" y="89.483" fill="rgb(255,255,255)" rx="0" ry="0" transform="rotate(-11.580004 359.374327 90.51817877)"/>
          <rect width="1.141" height="2.07" x="361.049" y="89.033" fill="rgb(255,255,255)" rx="0" ry="0" transform="rotate(-11.580004 361.6190964 90.06772978)"/>
          <rect width="1.132" height="2.07" x="363.294" y="88.574" fill="rgb(255,255,255)" rx="0" ry="0" transform="rotate(-11.580004 363.85935944 89.60900418)"/>
          <rect width="1.141" height="2.07" x="365.538" y="88.104" fill="rgb(255,255,255)" rx="0" ry="0" transform="rotate(-11.580004 366.1086352 89.13923181)"/>
          <rect width="1.141" height="2.07" x="367.783" y="87.654" fill="rgb(255,255,255)" rx="0" ry="0" transform="rotate(-11.580004 368.3534046 88.68878283)"/>
          <rect width="1.132" height="2.07" x="370.028" y="87.195" fill="rgb(255,255,255)" rx="0" ry="0" transform="rotate(-11.580004 370.59366764 88.23005723)"/>
          <rect width="1.132" height="2.07" x="372.284" y="86.694" fill="rgb(255,255,255)" rx="0" ry="0" transform="rotate(-11.590004 372.84938213 87.72933693)"/>
          <rect width="1.141" height="2.07" x="374.526" y="86.273" fill="rgb(255,255,255)" rx="0" ry="0" transform="rotate(-11.580004 375.09672555 87.3079891)"/>
          <rect width="1.132" height="2.07" x="376.78" y="85.814" fill="rgb(255,255,255)" rx="0" ry="0" transform="rotate(-11.580004 377.34618858 86.8492635)"/>
        </g>
        <g opacity=".5">
          <path fill="rgb(255,255,255)" fill-rule="evenodd" d="M400.3288 79.7916l-2.7048-.6716c-.3588-.092-.7268-.184-1.104-.2484l-3.9836.7728c-.55891217.10924192-.92344192.65088783-.8142 1.2098.10924192.55891217.65088783.92344192 1.2098.8142l8.0224-1.6284c-.1955647-.1123258-.4062492-.19597993-.6256-.2484z"/>
        </g>
      </g>
      <g>
        <path fill="rgb(38,50,56)" fill-rule="evenodd" d="M255.806 124.0988c11.2516 24.3156 38.8332 37.5452 10.12 50.9864-28.7132 13.4412-31.5928-23.368-30.7556-34.5828.8372-11.2148 14.5544-29.5412 20.6356-16.4036z"/>
        <path fill="rgb(38,50,56)" fill-rule="evenodd" d="M277.2328 158.6632h-.0552c-.12610308-.03174853-.20374257-.15842349-.1748-.2852 1.4812-6.992-3.68-12.1624-9.7612-18.1608-4.4988-4.462-9.6048-9.522-12.2912-16.0264-1.3156-3.1924-3.1004-4.6-5.29-4.1216-5.8788 1.2144-12.4936 14.72-12.3648 22.6044 0 .13210651-.10709349.2392-.2392.2392-.1270255 0-.23-.1029745-.23-.23-.1288-8.05 6.6884-21.8224 12.742-23.0736 1.6744-.3496 4.048.138 5.8144 4.3976 2.6588 6.44 7.7188 11.4448 12.19 15.8792 6.1272 6.0904 11.4264 11.3528 9.8808 18.5932-.02149891.10543076-.11322076.18186563-.2208.184z"/>
        <path fill="rgb(38,50,56)" fill-rule="evenodd" d="M233.9928 132.5352c2.8336 1.9228 7.6912-5.474 10.028-15.1524-5.842-4.8116-9.3932-4.0664-11.73.1472-2.7232 4.9128-1.5272 12.8064 1.702 15.0052z"/>
        <path fill="rgb(11,50,227)" fill-rule="evenodd" d="M224.3236 284.924s39.4772-8.004 68.2364-1.3156c-8.4364-12.6408-44.2152-68.6412-44.2152-68.6412l-17.0016 20.24-7.0196 49.7168z"/>
        <g opacity=".2">
          <path fill="rgb(0,0,0)" fill-rule="evenodd" d="M224.3236 284.924s39.4772-8.004 68.2364-1.3156c-8.4364-12.6408-44.2152-68.6412-44.2152-68.6412l-17.0016 20.24-7.0196 49.7168z"/>
        </g>
        <path fill="rgb(11,50,227)" fill-rule="evenodd" d="M236.6148 163.1436c-.6164 2.7048-1.3064 5.152-2.0884 7.6912s-1.6376 5.014-2.5944 7.498c-.9568 2.484-1.9964 4.9588-3.22 7.4244-1.23447145 2.56913996-2.68080536 5.0309849-4.324 7.36-.2116.3036-.4416.6164-.69.92-.2484.3036-.4324.5796-.8188 1.012-.32626876.38948156-.67655098.75819969-1.0488 1.104-.33339326.32466425-.68346729.63174673-1.0488.92-1.27950064 1.01417467-2.6607602 1.89287775-4.1216 2.622-2.54440323 1.27083312-5.2065815 2.29071854-7.9488 3.0452-2.5780099.72421851-5.19500999 1.30167862-7.8384 1.7296-2.61451656.45746728-5.25311401.76463812-7.9028.92l-1.2328-6.3848c4.6-1.7572 9.2-3.5512 13.4688-5.612 2.02796211-.94476203 3.9809536-2.04274307 5.842-3.2844.7470765-.5117763 1.44333257-1.09404354 2.0792-1.7388.12093736-.11607495.23174002-.24226687.3312-.3772.08888987-.09600664.1632755-.20448568.2208-.322l.3128-.4968c.1288-.1932.2576-.414.3864-.6348 1.0743706-1.9305594 2.02391647-3.92798598 2.8428-5.98.8648-2.1528 1.6928-4.3884 2.4472-6.6608s1.4904-4.6 2.1896-6.9184c.6992-2.3184 1.38-4.7288 2.0056-6.9368l12.7512 3.1004z"/>
        <path fill="rgb(255,195,189)" fill-rule="evenodd" d="M193.2 199.8976l-7.4244.3864 4.2044 7.636s4.7564-1.6928 5.9156-6.3572l-2.6956-1.6652z"/>
        <path fill="rgb(255,195,189)" fill-rule="evenodd" d="M180.2924 205.1508l6.0076 4.7288 3.68-1.978-4.2136-7.6176-5.474 4.8668z"/>
        <path fill="rgb(255,195,189)" fill-rule="evenodd" d="M254.5916 375.9948l-8.326.782-1.7112-19.1452 8.3168-.782 1.7204 19.1452z"/>
        <path fill="rgb(255,195,189)" fill-rule="evenodd" d="M319.7828 347.6864l-6.0444 5.6764-13.0456-14.3428 6.0444-5.6672 13.0456 14.3336z"/>
        <path fill="rgb(38,50,56)" fill-rule="evenodd" d="M312.0824 351.8816l4.5448-8.1788c.15814575-.29225263.5083512-.4221041.8188-.3036l6.992 2.6588c.3489143.14995685.618042.44060852.74076362.80000754.12272162.35939903.08756631.75395221-.09676362 1.08599246-1.6376 2.8244-2.5668 4.1124-4.6 7.7096-1.2236 2.208-3.6156 7.2864-5.3176 10.3408-1.702 3.0544-4.8024 1.5456-4.37.1196 1.9412-6.3848 1.5732-9.9452 1.0212-12.7604-.08123622-.50673188.01288375-1.0260145.2668-1.472z"/>
        <path fill="rgb(38,50,56)" fill-rule="evenodd" d="M245.1616 374.2928h9.8808c.3673713.00403794.6870778.25228065.782.6072l2.1436 7.82c.10863693.3746512.03212926.77864933-.20597256 1.08763644-.23810183.3089871-.6092608.4859304-.99922744.47636356h-22.7516c-3.6064 0-4.3608-3.68-2.8704-3.9836 6.6976-1.4812 10.5616-3.5236 12.6224-5.474.38230449-.34762122.88170256-.53818101 1.3984-.5336z"/>
        <g opacity=".2">
          <path fill="rgb(0,0,0)" fill-rule="evenodd" d="M244.5544 357.6408l.8832 9.8624h8.3904l-.9476-10.6536-8.326.7912z"/>
        </g>
        <g opacity=".2">
          <path fill="rgb(0,0,0)" fill-rule="evenodd" d="M306.7464 333.3528l-6.0444 5.6764 6.7252 7.3876 6.0444-5.6764-6.7252-7.3876z"/>
        </g>
        <path fill="rgb(38,50,56)" fill-rule="evenodd" d="M223.6888 163.4656c.552 6.256 2.6312 18.6668 8.8504 43.24l33.6996-2.9164c-1.6192-12.6316-2.3828-20.8104.7636-44.6476.22026189-1.63629672-.24900467-3.29057036-1.29565452-4.56748318-1.04664985-1.27691282-2.57664419-2.06173747-4.22434548-2.16691682-2.392-.1288-5.2256-.2116-8.0684-.1012-5.1342066.08122052-10.25616072.52700885-15.3272 1.334-3.0544.552-6.3296 1.3432-8.9516 2.0424-3.47086555.91867249-5.77236693 4.20764237-5.4464 7.7832z"/>
        <path fill="rgb(255,195,189)" fill-rule="evenodd" d="M250.378 135.24c-.5428 5.0048-.7176 14.1128 3.0084 17.0936 0 0 .2944 5.1704-10.212 6.8632-7.36-.6256-5.0876-5.52-5.0876-5.52 5.3728-1.7848 4.876-5.842 3.588-9.5864l8.7032-8.8504z"/>
        <g opacity=".2">
          <path fill="rgb(0,0,0)" fill-rule="evenodd" d="M246.836 138.8372l-5.152 5.2256c.30769144.87191395.54459208 1.76721378.7084 2.6772 2.07-.4876 5.0692-2.6404 5.0968-4.8484-.03647769-1.04861664-.25759726-2.0825842-.6532-3.0544z"/>
        </g>
        <path fill="rgb(255,195,189)" fill-rule="evenodd" d="M254.7848 127.4108c-2.0884 8.004-2.806 11.4264-7.7096 14.7844-7.36 5.0416-16.744.7268-17.0844-7.7372-.3128-7.6176 3.1556-19.412 11.7116-21.0772 3.83298146-.76773368 7.79004577.50561488 10.45596846 3.36463886 2.66592268 2.85902397 3.65989647 6.895333 2.62643154 10.66536114z"/>
        <path fill="rgb(38,50,56)" fill-rule="evenodd" d="M237.2864 112.746c-3.3948 3.404 3.68 12.0244 15.4744 19.6328 9.1172-5.52 5.9892-12.88 1.84-17.112-4.1492-4.232-13.4228-6.4308-17.3144-2.5208z"/>
        <path fill="rgb(38,50,56)" fill-rule="evenodd" d="M240.4696 121.6056c-.06294622-.00083688-.12279835-.02743783-.1656-.0736-3.7536-3.7444-5.2164-6.5872-4.3516-8.4456 1.2788-2.76 7.0564-2.2356 7.2956-2.2172.11191437.02227072.1925151.12049123.1925151.2346s-.08060073.21232928-.1925151.2346c-.0644 0-5.6948-.4876-6.8356 1.9504-.7636 1.6376.7084 4.37 4.2596 7.912.04497693.04335114.07038597.10313204.07038597.1656s-.02540904.12224886-.07038597.1656c-.05277038.05402573-.12725289.08111028-.2024.0736z"/>
        <path fill="rgb(255,195,189)" fill-rule="evenodd" d="M255.4472 134.6328c-.74801082 1.41219513-2.02483126 2.47069911-3.5512 2.944-2.0332.6164-3.0912-1.1868-2.5576-3.128.4784-1.7388 2.1068-4.1584 4.1584-3.9192.89549347.14482416 1.66264913.72043587 2.05208371 1.53971806.38943459.81928218.35142091 1.77762012-.10168371 2.56348194z"/>
        <path fill="rgb(38,50,56)" fill-rule="evenodd" d="M232.5392 206.7332s-9.7336 50.3976-2.1252 85.9556c5.106 23.7912 11.638 71.9624 11.638 71.9624l14.3704-.3772s-3.7352-50.4804-6.6148-70.334c-4.922-33.9664 7.406-89.3412 7.406-89.3412l-24.6744 2.1344z"/>
        <g opacity=".2">
          <path fill="rgb(0,0,0)" fill-rule="evenodd" d="M245.686 216.9176l7.1852 11.3344c-2.16524365 13.44091561-3.53841265 26.99750343-4.1124 40.5996-10.1016-18.0964-5.3176-42.3568-3.0728-51.934z"/>
        </g>
        <path fill="rgb(11,50,227)" fill-rule="evenodd" d="M240.7824 365.2032l16.9372-.046-.0552-5.6672-17.9308-.2392 1.0488 5.9524z"/>
        <path fill="rgb(38,50,56)" fill-rule="evenodd" d="M239.9084 206.1996s6.6884 53.4796 21.16 82.6804c11.7116 23.5888 42.9548 57.1688 42.9548 57.1688l7.9948-8.234s-21.114-36.4872-29.8172-52.1548c-21.3348-38.4192-3.9008-67.7396-15.9896-81.88l-26.3028 2.4196z"/>
        <path fill="rgb(11,50,227)" fill-rule="evenodd" d="M303.2412 347.1436l10.3132-10.0464-3.4224-4.6552-10.9296 10.9112 4.0388 3.7904z"/>
        <path fill="rgb(255,255,255)" fill-rule="evenodd" d="M266.57 201.7928l1.7848 2.8888c.138.2208-.1196.4876-.5152.5244l-35.3372 3.0544c-.3036 0-.5704-.1012-.6072-.2944l-.5612-2.99c0-.2024.2116-.4048.5428-.4324l34.1228-2.9532c.21196705-.03164791.4257896.0442246.5704.2024z"/>
        <path fill="rgb(38,50,56)" fill-rule="evenodd" d="M262.3196 206.0064l.92-.0736c.184 0 .3128-.1288.2944-.2392l-.7728-3.8824c0-.1104-.184-.1932-.368-.1748l-.92.0736c-.1748 0-.3128.1288-.2852.2392l.7636 3.8824c.0184.1104.184.1932.368.1748z"/>
        <path fill="rgb(38,50,56)" fill-rule="evenodd" d="M235.0968 208.3616l.92-.0736c.1748 0 .3128-.1288.2852-.2392l-.7636-3.8824c0-.1104-.1932-.1932-.3772-.1748l-.92.0736c-.184 0-.3128.1196-.2944.2392l.7728 3.8824c.0276.1104.2024.1932.3772.1748z"/>
        <path fill="rgb(38,50,56)" fill-rule="evenodd" d="M248.7128 207.184l.92-.0736c.184 0 .3128-.1288.2852-.2392l-.7636-3.8824c0-.1104-.1932-.1932-.368-.1748l-.92.0736c-.184 0-.3128.1288-.2852.2392l.7636 3.8824c.0552.1104.184.1932.368.1748z"/>
        <path fill="rgb(38,50,56)" fill-rule="evenodd" d="M241.2424 127.144c-.1288.6532-.5796 1.1224-1.012 1.0396-.4324-.0828-.6716-.69-.5428-1.3524.1288-.6624.5796-1.1224 1.012-1.0396.4324.0828.6716.69.5428 1.3524z"/>
        <path fill="rgb(38,50,56)" fill-rule="evenodd" d="M233.7996 125.672c-.138.6624-.5888 1.1316-1.0212 1.0396-.4324-.092-.6716-.6808-.5428-1.3432.1288-.6624.5796-1.1224 1.012-1.0396.4324.0828.6808.69.552 1.3432z"/>
        <path fill="rgb(38,50,56)" fill-rule="evenodd" d="M233.4316 124.4024l-1.4904-.7636s.5704 1.3892 1.4904.7636z"/>
        <path fill="rgb(237,132,126)" fill-rule="evenodd" d="M236.3572 127.3188c-.88002116 1.38870926-1.94817286 2.64881866-3.174 3.7444.58048135.6273438 1.4096503.96440435 2.2632.92l.9108-4.6644z"/>
        <path fill="rgb(38,50,56)" fill-rule="evenodd" d="M238.4916 135.1112c1.38923758.0222761 2.73361101-.49174903 3.7536-1.4352.04457733-.06573983.03620038-.15387173-.01996394-.21003606-.05616433-.05616432-.14429623-.06454127-.21003606-.01996394-1.28078939 1.12998338-3.02382785 1.58112275-4.692 1.2144-.08875487-.0169688-.17472701.04034597-.1932.1288-.01088623.04289822-.00308766.08840033.02146224.12522518.0245499.03682485.0635524.06152434.10733776.06797482.40528913.0859856.81849012.12915585 1.2328.1288z"/>
        <path fill="rgb(38,50,56)" fill-rule="evenodd" d="M245.7228 124.5864c.05451852.01226667.11108148.01226667.1656 0 .15353846-.09504475.20264506-.29556336.1104-.4508-.61568107-1.08908402-1.7258638-1.80743755-2.9716-1.9228-.0854094-.00247516-.16830058.02909791-.2304204.08776664-.06211982.05866872-.09837416.13962197-.1007796.22503336-.00500923.086965.02542944.17224915.0843697.23639001.05894025.06414086.14135272.1016653.2284303.10400999 1.02213042.11284706 1.9267842.71252287 2.4288 1.61.07225433.07983726.17802288.12077993.2852.1104z"/>
        <path fill="rgb(38,50,56)" fill-rule="evenodd" d="M231.7296 121.946c.05528283-.00123961.10924904-.01711203.1564-.046.88297378-.52565625 1.96499868-.59413884 2.9072-.184.16025736.08147773.3562512.02022965.4416-.138.04207597-.0779633.05116327-.16953387.02523092-.2542462-.02593234-.08471233-.0847224-.15550411-.16323092-.1965538-1.14139711-.50584849-2.45664345-.43049583-3.5328.2024-.15684692.09196467-.2102301.29317816-.1196.4508.05743902.10338896.16693483.16696718.2852.1656z"/>
        <path fill="rgb(11,50,227)" fill-rule="evenodd" d="M252.8712 151.3952c-.99313584 7.76016982-1.41440461 15.58285414-1.2604 23.4048.0828 9.5772-2.3552 52.44 10.7364 102.7088 20.93.1196 30.2036 6.1456 30.2036 6.1456s-20.2952-81.88-22.862-124.2c-.24862123-4.21825332-3.61124157-7.58482504-7.8292-7.8384-4.1584-.3588-8.9884-.2208-8.9884-.2208z"/>
        <path fill="rgb(255,255,255)" fill-rule="evenodd" d="M274.0312 221.168c-.05528283-.00123961-.10924904-.01711203-.1564-.046-5.888-3.5052-11.9048-13.3492-12.1532-13.8-.04424788-.07067277-.05844778-.15608686-.03944638-.23727468.0190014-.08118782.06963126-.151429.14064638-.19512532.15005142-.09303677.34703694-.04789425.4416.1012.0644.1012 6.1916 10.12 11.96 13.5516.07514898.04213304.12959285.11339597.15048834.19697792.02089548.08358194.00639227.17208164-.04008834.24462208-.05322307.1183824-.17402615.1915964-.3036.184z"/>
        <g opacity=".2">
          <path fill="rgb(0,0,0)" fill-rule="evenodd" d="M270.8388 172.086l-6.7988-5.9616s2.9716 12.88 8.97 22.172c-.8464-5.6212-1.61-11.0676-2.1712-16.2104z"/>
        </g>
        <path fill="rgb(11,50,227)" fill-rule="evenodd" d="M237.0564 153.0236s-.7544 8.8688-.7544 31.6756c0 22.0064 2.76 53.7004-1.4628 93.6192-4.11076847 1.04560265-7.78915598 3.35626078-10.5156 6.6056-2.72644402 3.24933922 5.6488-72.4592-.8464-121.5596-.4276457-4.28233444 2.53649654-8.16347046 6.7804-8.878 4.0848-.7636 6.7988-1.4628 6.7988-1.4628z"/>
        <rect width="20.948" height="7.443" x="280.993" y="221.296" fill="rgb(11,50,227)" rx="0" ry="0" transform="rotate(-14.590005 291.46761876 225.0175168)"/>
        <g opacity=".8">
          <rect width="20.948" height="1.343" x="281.412" y="225.959" fill="rgb(255,255,255)" rx="0" ry="0" transform="rotate(-14.590005 291.88597288 226.63014343)"/>
        </g>
        <rect width="17.774" height="8.758" x="283.091" y="219.458" fill="rgb(38,50,56)" rx="0" ry="0" transform="rotate(-11.820004 291.9780898 223.83756757)"/>
        <path fill="rgb(255,195,189)" fill-rule="evenodd" d="M284.6664 216.062l-1.4352 7.3048 6.8908-1.7388s.46-5.0232-2.3644-7.0104l-3.0912 1.4444z"/>
        <path fill="rgb(255,195,189)" fill-rule="evenodd" d="M284.9792 227.1664l6.9276-.6716-1.7848-4.8668-6.8908 1.7388 1.748 3.7996z"/>
        <path fill="rgb(11,50,227)" fill-rule="evenodd" d="M267.1588 153.9528c2.0148 2.0884 3.8088 4.14 5.6304 6.2928 1.8216 2.1528 3.5512 4.324 5.2164 6.6056s3.3212 4.6 4.8576 7.1024c.7636 1.2604 1.5272 2.5116 2.2264 3.8916l.5244 1.0212.506 1.0856.4968 1.104c.1656.3588.3404.828.4968 1.2328.54003635 1.51582496.97047759 3.068488 1.288 4.646.3036 1.4812.5428 2.9256.7452 4.3516.3956 2.852.6256 5.658.7912 8.4548.30825732 5.55066095.2713863 11.1151114-.1104 16.6612l-6.4952.3496c-1.0488-5.2532-2.0332-10.5708-3.128-15.7412-.5428-2.5944-1.1224-5.152-1.7756-7.6176-.3128-1.2328-.6624-2.438-1.0396-3.588-.33856683-1.0544056-.73476296-2.08942958-1.1868-3.1004-.1196-.2116-.184-.3772-.3312-.6256l-.414-.7176-.4232-.7176-.4876-.7452c-.6256-.9844-1.3616-2.0056-2.07-3.0176-1.4628-2.024-3.0912-4.0388-4.7196-6.0628-3.2752-4.002-6.8172-8.0408-10.2028-11.96l9.6048-8.9056z"/>
        <path fill="rgb(11,50,227)" fill-rule="evenodd" d="M310.81286621 356.23321533c-.10351562.03619385-.21240234.0548706-.32202148.05517578-.26403809-.0032959-.51965332-.09387207-.72680664-.25756836-.19006348-.12902832-.2956543-.350708-.27600098-.57965088.08276367-1.04876708 2.7232666-2.45635986 3.02685547-2.61279296.05273437-.0355835.12194824-.0355835.17480469 0 .0526123.0371704.07495117.10430908.05517578.16558838-.2944336 1.0671997-.94763184 2.88885498-1.93200684 3.22924804zm-.09204101-.31280517c.56115722-.19317627 1.1500244-1.1591797 1.60998535-2.62200928l-.00915528-.01837158c-.91088867.53363037-2.4564209 1.53637695-2.5024414 2.18041992-.00134278.11584473.0579834.22399902.15637207.28515625.19824219.18933105.4835205.25622558.74523926.17480469z"/>
        <path fill="rgb(11,50,227)" fill-rule="evenodd" d="M312.67114258 353.1052246c-.80529785.39361573-1.68884278.60113526-2.58520508.60717774-.41723633.03503418-.83435059-.06848144-1.18676758-.29437255-.23754883-.19927979-.29943847-.53948975-.1472168-.80963135.10546876-.27966309.33215333-.49627686.61645508-.58874512 1.0682373-.37658691 3.01184082.6472168 3.2758789.78631592l.02685548.01403808c.04846191.0298462.0793457.08129883.08276367.1380005.00354004.06103515-.0288086.11853027-.08276367.14721679zm-3.56030274.0551758c.48754883.41400146 2.19873047.18402099 3.11877442-.20239259-.59802246-.28521728-1.98718262-.90161133-2.76000977-.62561035-.19152832.06115723-.34423828.20703125-.4140625.39556885-.11035156.2576294-.02758789.368042.05529785.43243408z"/>
        <path fill="rgb(11,50,227)" fill-rule="evenodd" d="M243.47802734 375.55316162c-.88464355.20477295-1.7878418.31878662-2.69561767.3404541-.66998291.0470581-1.3381958-.11358642-1.91357422-.46002197-.29241943-.2178955-.47143555-.55566406-.48760986-.91998291-.02008057-.19995117.07196045-.39465332.23919677-.50604248.90161133-.60717773 4.48962403 1.03961182 4.89440918 1.23284912.0643921.02819824.10205078.09594727.09197998.16558838-.00891113.07073975-.05987548.12896728-.12878418.14715576zm-4.44366455-.34954834c.80963135.61639404 2.77844239.35882568 3.8456421.1564331-1.45361329-.68084716-3.56964112-1.42602538-4.11242677-1.05804443-.0713501.04919434-.1072998.13555909-.09197998.2208252.01434327.26843262.14544678.51721191.35876465.68078613z"/>
        <path fill="rgb(11,50,227)" fill-rule="evenodd" d="M243.5515747 375.55316162c-.03582763.0119629-.07452392.0119629-.11035156 0l-.0828247.02764893c-1.07641602-.39562989-3.33959961-2.23565674-3.21081543-3.15563965.01843261-.19317627.1564331-.43237305.64404297-.49676514 1.91357422-.2208252 2.75994873 3.31195069 2.75994873 3.45916748.0316162.05065918.0316162.1149292 0 .16558838zm-.35876464-.45996094c-.23919678-.82800293-.96600342-2.87957763-2.20800781-2.87957763l-.1380005.0092163c-.35882568.0368042-.35882568.16558838-.35882568.2116089-.05517578.57037353 1.536438 2.0423584 2.70483399 2.65875243z"/>
        <path fill="rgb(38,50,56)" fill-rule="evenodd" d="M240.8836 125.8652l-1.4904-.7636s.5612 1.3984 1.4904.7636z"/>
        <path fill="rgb(11,50,227)" fill-rule="evenodd" d="M255.3276 151.1744l-2.5576.0644c-.14482127.00197735-.2680799.10597682-.2944.2484-.322 1.61-2.0424 11.2976-.92 28.704 1.0948-5.0784 3.772-15.824 4.9036-18.17-.9752-.736-2.5392-1.9412-2.5392-1.9412l2.8704-1.84-1.15-6.762c.0027591-.08296004-.02963153-.16322998-.08919497-.22104155-.05956343-.05781157-.14076429-.08779219-.22360503-.08255845z"/>
        <g opacity=".2">
          <path fill="rgb(255,255,255)" fill-rule="evenodd" d="M255.3276 151.1744l-2.5576.0644c-.14482127.00197735-.2680799.10597682-.2944.2484-.322 1.61-2.0424 11.2976-.92 28.704 1.0948-5.0784 3.772-15.824 4.9036-18.17-.9752-.736-2.5392-1.9412-2.5392-1.9412l2.8704-1.84-1.15-6.762c.0027591-.08296004-.02963153-.16322998-.08919497-.22104155-.05956343-.05781157-.14076429-.08779219-.22360503-.08255845z"/>
        </g>
        <path fill="rgb(11,50,227)" fill-rule="evenodd" d="M234.2504 153.2904l3.0268-.5244s.2668 8.648-.966 27.784c-1.0948-5.0784-3.3672-15.594-3.496-18.5288.9752-.736 2.5392-1.9872 2.5392-1.9872l-2.8704-1.84 1.7664-4.9036z"/>
        <g opacity=".2">
          <path fill="rgb(255,255,255)" fill-rule="evenodd" d="M234.2504 153.2904l3.0268-.5244s.2668 8.648-.966 27.784c-1.0948-5.0784-3.3672-15.594-3.496-18.5288.9752-.736 2.5392-1.9872 2.5392-1.9872l-2.8704-1.84 1.7664-4.9036z"/>
        </g>
        <path fill="rgb(38,50,56)" fill-rule="evenodd" d="M161.8016 271.8876h32.0596c9.0845213 0 16.46 7.3754787 16.46 16.46v70.4328c0 9.0845213-7.3754787 16.46-16.46 16.46h-32.0596c-9.0845213 0-16.46-7.3754787-16.46-16.46v-70.4328c0-9.0845213 7.3754787-16.46 16.46-16.46z"/>
        <path fill="rgb(38,50,56)" fill-rule="evenodd" d="M173.26361084 203.15441895h9.14483643c5.63867187.01513671 10.20599365 4.5824585 10.2211914 10.2211914v98.76202393c-.01519775 5.6387329-4.58251953 10.20599365-10.2211914 10.2211914h-9.14483643c-5.63873291-.01519775-10.20605469-4.5824585-10.2211914-10.2211914v-98.76202393c.01513671-5.6387329 4.58245849-10.20605469 10.2211914-10.2211914zm17.71917725 10.2211914c-.00506592-4.73339844-3.84094239-8.56933594-8.57440186-8.57440185h-9.14477539c-4.73339844.00506591-8.56933594 3.84100341-8.57440186 8.57440185v98.76202393c.00506592 4.73339843 3.84100342 8.5692749 8.57440186 8.57440185h9.14477539c4.73345947-.00512695 8.56933594-3.84100342 8.57440186-8.57440185v-98.76202393z"/>
        <ellipse cx="197.598" cy="376.409" fill="rgb(38,50,56)" rx="3.855" ry="3.855"/>
        <path fill="rgb(38,50,56)" fill-rule="evenodd" d="M187.8916 376.4088c.02232048 1.5651501-.90183704 2.98914137-2.34038995 3.60619778-1.4385529.61705641-3.10726477.30525692-4.2259424-.78961907-1.11867764-1.09487598-1.46628717-2.75649743-.88030648-4.20798622C181.03094187 373.56590371 182.43473182 372.61133993 184 372.6c2.12339414-.0153834 3.86132073 1.68556603 3.8916 3.8088z"/>
        <path fill="rgb(38,50,56)" fill-rule="evenodd" d="M165.7012 376.4088c3e-8 1.55912098-.9391918 2.96472096-2.37963183 3.5613708-1.44044002.59664982-3.09845823.26684953-4.20092333-.83561552-1.1024651-1.10246505-1.43226546-2.76048325-.8356157-4.2009233.59664978-1.44044005 2.00224972-2.37963195 3.56137078-2.37963198 2.12684875.00505793 3.84974215 1.72795133 3.85480008 3.8548z"/>
        <ellipse cx="148.276" cy="376.409" fill="rgb(38,50,56)" rx="3.855" ry="3.855"/>
        <path fill="rgb(11,50,227)" fill-rule="evenodd" d="M152.0128 271.8876h32.0596c9.0845213 0 16.46 7.3754787 16.46 16.46v70.4328c0 9.0845213-7.3754787 16.46-16.46 16.46h-32.0596c-9.0845213 0-16.46-7.3754787-16.46-16.46v-70.4328c0-9.0845213 7.3754787-16.46 16.46-16.46z"/>
        <g opacity=".2">
          <path fill="rgb(255,255,255)" fill-rule="evenodd" d="M152.0128 271.8876h32.0596c9.0845213 0 16.46 7.3754787 16.46 16.46v70.4328c0 9.0845213-7.3754787 16.46-16.46 16.46h-32.0596c-9.0845213 0-16.46-7.3754787-16.46-16.46v-70.4328c0-9.0845213 7.3754787-16.46 16.46-16.46z"/>
        </g>
        <path fill="rgb(11,50,227)" fill-rule="evenodd" d="M151.3808 281.5108h26.0924c7.39014218 0 13.39 5.99985782 13.39 13.39v57.3172c0 7.39014218-5.99985782 13.39-13.39 13.39h-26.0924c-7.39014218 0-13.39-5.99985782-13.39-13.39v-57.3172c0-7.39014218 5.99985782-13.39 13.39-13.39z"/>
        <path fill="rgb(255,255,255)" fill-rule="evenodd" d="M143.43719482 356.01239014c.00506592 1.93884277 1.57556153 3.50933838 3.5144043 3.5144043 1.92663574-.00500489 3.49005127-1.5602417 3.50518799-3.48681641v-64.92437744c.06640625-1.29681397-.58764648-2.52459717-1.70092773-3.19293213-1.11328126-.66833496-2.50439454-.66833496-3.61773682 0-1.11328125.66833496-1.76733399 1.89611816-1.70092774 3.19293213v64.89678955zm1.61480713-66.79638672c.50378418-.50378418 1.1871338-.7868042 1.89959717-.7868042.71160889 0 1.39398193.2833252 1.89630127.78741455.50231934.50402832.7833252 1.18737793.78088379 1.89898682v64.92437744c.0583496.99560547-.43969727 1.94158935-1.29345703 2.45703125-.8538208.51538086-1.92285156.51538086-2.77667236 0-.8538208-.5154419-1.35180665-1.46142578-1.29345704-2.45703125v-64.92437744c0-.71246338.28302002-1.39575196.7868042-1.89959717z"/>
        <path fill="rgb(255,255,255)" fill-rule="evenodd" d="M178.47998047 356.03997803c.02020264 1.94244385 1.60870361 3.50213623 3.5512085 3.4868164 1.91381835-.02490234 3.45776367-1.572937 3.4776001-3.4868164v-64.92437744c0-1.940979-1.57348634-3.5144043-3.5144043-3.5144043-1.940979 0-3.5144043 1.5734253-3.5144043 3.5144043v64.92437744zm1.65161133-66.82397461c.50384521-.50378418 1.18713379-.7868042 1.89959716-.7868042.71246338 0 1.39575196.28302002 1.89959717.7868042.50378418.50384521.7868042 1.18713379.7868042 1.89959717v64.92437744c0 1.48370361-1.20275879 2.68640136-2.68640137 2.68640136-1.48364257 0-2.68640136-1.20269775-2.68640136-2.68640136v-64.92437744c0-.71246338.28302002-1.39575196.7868042-1.89959717z"/>
        <path fill="rgb(255,255,255)" fill-rule="evenodd" d="M166.8236084 356.01245117c.00506592 1.93884278 1.57556152 3.50933838 3.5144043 3.5144043 1.92816162-.00494385 3.4942627-1.55877686 3.5144043-3.4868164v-64.92443848c0-1.2555542-.66986085-2.41577149-1.75720216-3.04351807-1.0873413-.62780762-2.42706298-.62780762-3.5144043 0-1.0873413.62774658-1.75720214 1.78796387-1.75720214 3.04351807v64.89685058zm1.61480713-66.79644775c.50384521-.50378418 1.18713379-.7868042 1.89959717-.7868042.71246337 0 1.39575195.28302002 1.89959716.7868042.50378418.50384521.7868042 1.18713379.7868042 1.89959717v64.92437744c0 1.48370361-1.20275879 2.68640136-2.68640136 2.68640136-1.48364258 0-2.68640137-1.20269775-2.68640137-2.68640136v-64.92437744c0-.71246338.28302002-1.39575196.7868042-1.89959717z"/>
        <path fill="rgb(255,255,255)" fill-rule="evenodd" d="M155.1303711 356.01239014c.00506591 1.93884277 1.57556152 3.50933838 3.5144043 3.5144043 1.92663573-.00500489 3.49005126-1.5602417 3.50518798-3.48681641v-64.92437744c.06640625-1.29681397-.58764649-2.52459717-1.70092774-3.19293213-1.11328125-.66833496-2.50439453-.66833496-3.61773681 0-1.11328125.66833496-1.76733399 1.89611816-1.70092774 3.19293213v64.89678955zm1.61486816-66.79638672c.50378418-.50378418 1.18713379-.7868042 1.89959717-.7868042.71160888 0 1.39398193.2833252 1.89630127.78741455.50231933.50402832.7833252 1.18737793.78088378 1.89898682v64.92437744c.05834961.99560547-.43969726 1.94158935-1.29345703 2.45703125-.8538208.51538086-1.92285156.51538086-2.77667236 0-.8538208-.5154419-1.35180664-1.46142578-1.29345703-2.45703125v-64.92437744c0-.71246338.28302002-1.39575196.7868042-1.89959717z"/>
      </g>
    </g>
  </g>
</svg>
