<svg xmlns="http://www.w3.org/2000/svg" width="13.853" height="13.853" viewBox="0 0 13.853 13.853">
  <g>
    <path fill="rgb(11,50,227)" fill-rule="evenodd" d="M0 6.92649841C0 3.10729981 3.1072998 0 6.92651367 0c3.81921387 0 6.9263916 3.1072998 6.9263916 6.92649841 0 3.81921387-3.10717773 6.92649842-6.9263916 6.92649842C3.1072998 13.85299683 0 10.74571228 0 6.9264984zm.86584473 0c0 3.34191895 2.71875 6.0606842 6.06066894 6.0606842 3.34191895 0 6.06066895-2.71876525 6.06066895-6.0606842 0-3.34191894-2.71875-6.0606842-6.06066895-6.0606842-3.34191894 0-6.06066894 2.71876526-6.06066894 6.0606842z"/>
    <path fill="rgb(11,50,227)" fill-rule="evenodd" d="M7.35938553 2.59744989h-.86581374v4.50830274l2.7242539 2.724263.61215712-.61215918-2.47059728-2.47060553V2.5974499z"/>
  </g>
</svg>
